<svg width="9" height="16" viewBox="0 0 9 16" fill="none" xmlns="http://www.w3.org/2000/svg">
<path d="M4.68503 15.5C4.48841 15.5 4.32472 15.3429 4.31686 15.1421C4.31047 14.9801 4.28392 14.7719 4.19397 14.7028C4.11925 14.6451 3.95212 14.6232 3.77565 14.6004C3.66702 14.586 3.54364 14.5701 3.41534 14.5432C2.88053 14.4304 2.50793 14.1809 2.33834 13.822C2.21054 13.5512 2.22479 13.2689 2.37816 13.0462C2.5561 12.7877 2.89429 12.6486 3.26099 12.6829C3.64834 12.7191 4.0293 12.7579 4.43532 12.833C4.87133 12.9135 5.48922 12.99 5.82397 12.7251C5.90705 12.6595 5.94539 12.5969 5.95522 12.5685C5.95178 12.5646 5.94637 12.5591 5.93801 12.5521C5.85101 12.4791 5.6008 12.5014 5.41795 12.5183C5.34323 12.5253 5.26556 12.5323 5.19134 12.5347C5.14317 12.5362 5.07975 12.5402 5.00455 12.5442C4.16693 12.5919 2.42338 12.6913 2.27935 11.6282C2.24052 11.3419 2.34473 11.155 2.43911 11.0486C2.61165 10.8538 2.88839 10.7639 3.2841 10.7743C3.42419 10.7778 3.56723 10.7847 3.70585 10.7917C4.33406 10.822 4.9839 10.8533 5.50741 10.5899C6.00093 10.3419 6.08941 9.96961 6.20444 9.33391C6.25998 9.02625 6.317 8.70816 6.45022 8.38559C6.58834 8.05059 6.81938 7.78369 7.02288 7.5476C7.07892 7.48299 7.13201 7.42136 7.18214 7.35973C7.4992 6.97255 7.82068 6.54908 8.02467 6.07492C8.36926 5.27521 8.3314 4.34527 7.918 3.45659C7.52083 2.60221 6.8297 1.90389 6.02158 1.54056C4.79711 0.989859 3.3249 1.22346 2.17858 2.15041C1.06128 3.054 0.547107 4.36714 0.8037 5.66239C0.937895 6.34182 1.33212 6.77572 1.78829 7.27822C1.95738 7.4646 2.13189 7.65695 2.30246 7.87166C2.62688 8.28072 2.73011 8.74195 2.78812 9.13908C2.87856 9.75738 3.05454 9.82994 3.21282 9.84933C3.51513 9.88611 3.95409 9.76085 4.05093 9.61026C4.20872 9.36473 4.17381 8.92884 4.16202 8.78619C4.10647 8.0988 4.08828 6.36667 4.08239 5.28564L3.12975 6.2782C2.98769 6.42582 2.75469 6.4293 2.60821 6.28615C2.46221 6.14251 2.45877 5.90692 2.60034 5.75881L4.18168 4.11167C4.18463 4.10869 4.18758 4.10571 4.19102 4.10223C4.19446 4.09875 4.1979 4.09527 4.20134 4.09229C4.26574 4.03414 4.34488 4.00233 4.42549 3.99785C4.45105 3.99636 4.47661 3.99785 4.50267 4.00133C4.57296 4.01177 4.6403 4.04308 4.69634 4.09477C4.70273 4.10074 4.70912 4.1072 4.71551 4.11366L6.23295 5.71358C6.37402 5.86219 6.36911 6.09828 6.22213 6.24043C6.07516 6.38307 5.84167 6.3781 5.70108 6.22949L4.81972 5.30055C4.82611 6.37363 4.84381 8.07346 4.8964 8.72605C4.92541 9.08341 4.93278 9.60628 4.66832 10.0178C4.3552 10.5049 3.57657 10.6461 3.12336 10.5904C2.23757 10.482 2.10239 9.55409 2.05766 9.24892C2.01195 8.93579 1.94018 8.60825 1.72635 8.33936C1.57151 8.14403 1.40487 7.96063 1.24413 7.78369C0.757493 7.2479 0.25463 6.69371 0.0796362 5.81C-0.231519 4.23593 0.380469 2.65092 1.71701 1.56939C3.08158 0.465498 4.84577 0.194122 6.3229 0.858644C8.20655 1.70607 9.64681 4.17877 8.70204 6.37214C8.46118 6.93129 8.10283 7.40545 7.75137 7.83488C7.69435 7.90397 7.63585 7.97206 7.57932 8.03767C7.39646 8.2494 7.22344 8.44921 7.13201 8.67138C7.02976 8.91989 6.98159 9.1853 6.93096 9.46662C6.81594 10.1058 6.68518 10.83 5.83724 11.2564C5.1412 11.6063 4.36061 11.569 3.67194 11.5357C3.53135 11.5288 3.39814 11.5223 3.26591 11.5193C3.12926 11.5159 3.05306 11.5298 3.01423 11.5412C3.04225 11.6247 3.22069 11.735 3.64687 11.7902C4.10156 11.8489 4.64178 11.8185 4.96424 11.7997C5.04633 11.7952 5.11564 11.7912 5.16824 11.7892C5.22182 11.7872 5.28572 11.7818 5.35355 11.7753C5.66422 11.747 6.0899 11.7087 6.41138 11.9786C6.59867 12.1361 6.69993 12.3459 6.69649 12.57C6.69255 12.8345 6.54066 13.1048 6.28014 13.3116C5.7173 13.7574 4.92835 13.6819 4.30408 13.5661C3.92705 13.4965 3.57854 13.4607 3.19414 13.4249C3.08797 13.415 3.0162 13.4463 2.99162 13.4652C2.99359 13.4726 2.99703 13.4841 3.00489 13.5C3.06978 13.6372 3.27476 13.751 3.56723 13.8131C3.66751 13.8345 3.77074 13.8479 3.87102 13.8608C4.35176 13.9234 5.01044 14.0089 5.05468 15.1118C5.06304 15.3176 4.90476 15.4911 4.70126 15.4995C4.69634 15.4995 4.69093 15.4995 4.68602 15.4995L4.68503 15.5Z" fill="white"/>
</svg>
